<svg width="24" height="24" viewBox="0 0 24 24" fill="none" xmlns="http://www.w3.org/2000/svg">
<path fill-rule="evenodd" clip-rule="evenodd" d="M18 9.5C18 13.6421 14.6422 17 10.5 17C6.35785 17 3 13.6421 3 9.5C3 5.35786 6.35785 2 10.5 2C14.6422 2 18 5.35786 18 9.5ZM16 9.5C16 12.5376 13.5375 15 10.5 15C7.46246 15 5 12.5376 5 9.5C5 6.46243 7.46246 4 10.5 4C13.5375 4 16 6.46243 16 9.5Z" fill="#08153E"/>
<path d="M17.5 16.3787C17.1095 15.9882 16.4763 15.9882 16.0858 16.3787L15.3787 17.0858C14.9882 17.4763 14.9882 18.1095 15.3787 18.5L17.8536 20.9749C18.4393 21.5607 19.3891 21.5607 19.9749 20.9749C20.5607 20.3891 20.5607 19.4393 19.9749 18.8535L17.5 16.3787Z" fill="#08153E"/>
</svg>
